# xmcd CD database file
#
# Track frame offsets:
#	150
#	19761
#	46053
#	60288
#	86339
#	116939
#	126219
#	158261
#	186457
#	196431
#
# Disc length: 2961 seconds
#
# Revision: 0
# Processed by: cddbd v1.5.1PL0 Copyright (c) Steve Scherf et al.
# Submitted via: CDex 1.51
#
DISCID=7a0b8f0a
DTITLE=Kitaro - World Of Kita[Vol09][Galactic Flight]
DYEAR=2000
DGENRE=New Age
TTITLE0=Estrella
TTITLE1=Milky Way
TTITLE2=Magical Wave
TTITLE3=Message From The Cosmos
TTITLE4=Solar System Trapeze
TTITLE5=Planet
TTITLE6=Moon Star
TTITLE7=Sundance
TTITLE8=Del Mar
TTITLE9=Cosmic Love
EXTD=YEAR: 2000
EXTT0=
EXTT1=
EXTT2=
EXTT3=
EXTT4=
EXTT5=
EXTT6=
EXTT7=
EXTT8=
EXTT9=
PLAYORDER=
